<svg width="20" height="20" viewBox="0 0 20 20" fill="none" xmlns="http://www.w3.org/2000/svg">
<rect width="20" height="20" rx="3" fill="white"/>
<path d="M12.5634 4.05133C12.6368 4.09389 12.6936 4.16007 12.7245 4.23908C12.7555 4.3181 12.7587 4.40526 12.7336 4.48633L11.3829 8.87533H13.8751C13.9484 8.8753 14.02 8.89672 14.0812 8.93694C14.1425 8.97717 14.1905 9.03443 14.2196 9.10168C14.2486 9.16892 14.2573 9.24319 14.2446 9.31532C14.2319 9.38745 14.1984 9.45429 14.1481 9.50758L8.14815 15.8826C8.09009 15.9443 8.01284 15.9846 7.92898 15.9968C7.84512 16.009 7.7596 15.9924 7.68635 15.9498C7.61311 15.9072 7.55646 15.841 7.52564 15.7621C7.49483 15.6831 7.49166 15.5961 7.51665 15.5151L8.8674 11.1253H6.37515C6.30191 11.1254 6.23026 11.1039 6.16905 11.0637C6.10785 11.0235 6.05976 10.9662 6.03072 10.899C6.00169 10.8317 5.99298 10.7575 6.00567 10.6853C6.01837 10.6132 6.05191 10.5464 6.10215 10.4931L12.1021 4.11808C12.1601 4.05643 12.2373 4.01621 12.321 4.00395C12.4048 3.9917 12.4902 4.00813 12.5634 4.05058V4.05133Z" fill="#F9CC69"/>
</svg>
